HIERARCHY
ROOT Hips
{
	OFFSET 0.000000 0.000000 0.000000
	CHANNELS 6 Xposition Yposition Zposition Zrotation Yrotation Xrotation 
	JOINT LowerBack
	{
		OFFSET 0.000000 0.000000 0.000000
		CHANNELS 3 Zrotation Yrotation Xrotation
		JOINT Spine
		{
			OFFSET 0.028270 2.035590 -0.193380
			CHANNELS 3 Zrotation Yrotation Xrotation
			JOINT Spine1
			{
				OFFSET 0.056720 2.048850 -0.042750
				CHANNELS 3 Zrotation Yrotation Xrotation
				JOINT Neck
				{
					OFFSET 0.000000 0.000000 0.000000
					CHANNELS 3 Zrotation Yrotation Xrotation
					JOINT Neck1
					{
						OFFSET -0.054170 1.746240 0.172020
						CHANNELS 3 Zrotation Yrotation Xrotation
						JOINT Head
						{
							OFFSET 0.104070 1.761360 -0.123970
							CHANNELS 3 Zrotation Yrotation Xrotation
							End Site
							{
								OFFSET 0.000000 0.000000 0.000000
							}
						}
					}
				}
				JOINT LeftShoulder
				{
					OFFSET 0.000000 0.000000 0.000000
					CHANNELS 3 Zrotation Yrotation Xrotation
					JOINT LeftArm
					{
						OFFSET 3.362410 1.200890 -0.311210
						CHANNELS 3 Zrotation Yrotation Xrotation
						JOINT LeftForeArm
						{
							OFFSET 4.983000 -0.000000 -0.000000
							CHANNELS 3 Zrotation Yrotation Xrotation
							JOINT LeftHand
							{
								OFFSET 3.483560 -0.000000 -0.000000
								CHANNELS 3 Zrotation Yrotation Xrotation
								JOINT LeftFingerBase
								{
									OFFSET 0.000000 0.000000 0.000000
									CHANNELS 3 Zrotation Yrotation Xrotation
									JOINT LeftHandIndex1
									{
										OFFSET 0.715260 -0.000000 -0.000000
										CHANNELS 3 Zrotation Yrotation Xrotation
										End Site
										{
											OFFSET 0.000000 0.000000 0.000000
										}
									}
								}
								JOINT LThumb
								{
									OFFSET 0.000000 0.000000 0.000000
									CHANNELS 3 Zrotation Yrotation Xrotation
									End Site
									{
										OFFSET 0.000000 0.000000 0.000000
									}
								}
							}
						}
					}
				}
				JOINT RightShoulder
				{
					OFFSET 0.000000 0.000000 0.000000
					CHANNELS 3 Zrotation Yrotation Xrotation
					JOINT RightArm
					{
						OFFSET -3.136600 1.374050 -0.404650
						CHANNELS 3 Zrotation Yrotation Xrotation
						JOINT RightForeArm
						{
							OFFSET -5.241900 -0.000000 -0.000000
							CHANNELS 3 Zrotation Yrotation Xrotation
							JOINT RightHand
							{
								OFFSET -3.444170 -0.000000 -0.000000
								CHANNELS 3 Zrotation Yrotation Xrotation
								JOINT RightFingerBase
								{
									OFFSET 0.000000 0.000000 0.000000
									CHANNELS 3 Zrotation Yrotation Xrotation
									JOINT RightHandIndex1
									{
										OFFSET -0.622530 -0.000000 -0.000000
										CHANNELS 3 Zrotation Yrotation Xrotation
										End Site
										{
											OFFSET 0.000000 0.000000 0.000000
										}
									}
								}
								JOINT RThumb
								{
									OFFSET 0.000000 0.000000 0.000000
									CHANNELS 3 Zrotation Yrotation Xrotation
									End Site
									{
										OFFSET 0.000000 0.000000 0.000000
									}
								}
							}
						}
					}
				}
			}
		}
	}
}
}
MOTION
Frames: 12
Frame Time: 0.008333
10.454047 15.566804 -0.997042 -167.733184 72.979880 -151.629271 5.668558 -1.781454 -6.272622 0.294726 -2.466717 -3.834408 -6.721593 -2.470258 1.095040 8.479390 -5.010339 -8.589009 -3.152173 -0.224550 -0.256629 0.000000 0.000000 0.000000 6.228204 9.863981 2.331220 -33.212418 -5.441219 -11.184365 -0.670469 -69.853986 -0.071660 12.384057 -1.045239 -0.155135 -0.254961 0.373060 0.000000 0.000000 0.000000 0.000000 0.000000 0.000000 0.000000 12.119983 -0.848233 1.640286 66.964157 16.670581 -16.393600 2.344986 21.457360 -0.025436 -11.264650 3.468626 -0.364042 0.144335 -0.179896 -0.000000 0.000000 0.000000 0.000000 0.000000 0.000000 0.000000 
10.605120 15.647046 -1.050838 -169.063457 72.546620 -153.062821 5.099060 -1.661902 -6.179868 0.193217 -2.290664 -3.814961 -6.584294 -2.298832 1.092862 8.292635 -4.620624 -8.355546 -2.977479 -0.213232 -0.193318 0.000000 0.000000 0.000000 6.001925 9.527823 2.650350 -34.289152 -5.008821 -7.521532 -1.020955 -64.156217 -0.056530 11.194612 -0.252579 -0.055050 -0.249817 0.314669 0.000000 0.000000 0.000000 0.000000 0.000000 0.000000 0.000000 11.281771 -0.394271 1.525246 65.931609 18.672474 -15.360350 2.231758 23.137249 -0.024852 -10.508542 3.927226 -0.383801 0.141059 -0.195125 -0.000000 0.000000 0.000000 0.000000 0.000000 0.000000 0.000000 
10.758678 15.741977 -1.112627 -170.279147 72.173061 -154.373074 4.542632 -1.525149 -6.098366 0.096580 -2.098309 -3.799297 -6.428091 -2.110835 1.090058 8.066067 -4.294241 -8.150995 -2.798504 -0.201702 -0.137088 0.000000 0.000000 0.000000 5.797798 9.205890 2.927195 -35.450420 -4.508826 -3.877856 -1.444983 -58.418764 -0.042950 9.831482 0.505061 0.023430 -0.245617 0.257768 0.000000 0.000000 0.000000 0.000000 0.000000 0.000000 0.000000 10.356876 -0.005391 1.411094 64.767098 20.523213 -14.359742 2.080784 25.051111 -0.025083 -9.988109 4.365431 -0.405166 0.137384 -0.211647 -0.000000 0.000000 0.000000 0.000000 0.000000 0.000000 0.000000 
10.914799 15.851837 -1.183117 -171.401370 71.861639 -155.593220 4.004522 -1.372028 -6.014632 0.006440 -1.890458 -3.787634 -6.252399 -1.907472 1.074548 7.799940 -4.030511 -7.970411 -2.620020 -0.190337 -0.086532 0.000000 0.000000 0.000000 5.593510 8.902263 3.146168 -36.741177 -3.899893 -0.373610 -1.922018 -52.726654 -0.031687 8.340567 1.212322 0.077200 -0.242014 0.203703 0.000000 0.000000 0.000000 0.000000 0.000000 0.000000 0.000000 9.361545 0.317096 1.300806 63.458493 22.195714 -13.423161 1.890566 27.195467 -0.026463 -9.726574 4.748409 -0.429038 0.133772 -0.229600 -0.000000 0.000000 0.000000 0.000000 0.000000 0.000000 0.000000 
11.073593 15.976541 -1.262785 -172.450331 71.611983 -156.754712 3.487989 -1.204718 -5.917992 -0.075859 -1.669377 -3.779794 -6.057209 -1.691343 1.038143 7.497379 -3.830806 -7.810707 -2.445517 -0.179386 -0.040738 0.000000 0.000000 0.000000 5.370774 8.631747 3.297449 -38.189289 -3.143533 2.848482 -2.423755 -47.145434 -0.023346 6.811037 1.867801 0.106853 -0.238907 0.153962 0.000000 0.000000 0.000000 0.000000 0.000000 0.000000 0.000000 8.313026 0.571162 1.193962 62.003241 23.672362 -12.584842 1.664455 29.557334 -0.029205 -9.717915 5.054573 -0.456614 0.130626 -0.249076 -0.000000 0.000000 0.000000 0.000000 0.000000 0.000000 0.000000 
11.235353 16.115520 -1.351814 -173.443045 71.421839 -157.882537 2.994728 -1.025961 -5.803010 -0.149316 -1.438054 -3.775815 -5.843156 -1.465678 0.976106 7.163167 -3.695248 -7.668664 -2.277080 -0.168996 0.001274 0.000000 0.000000 0.000000 5.120120 8.406811 3.379143 -39.807120 -2.200702 5.619460 -2.919072 -41.714808 -0.018134 5.361927 2.481492 0.117090 -0.236338 0.110015 0.000000 0.000000 0.000000 0.000000 0.000000 0.000000 0.000000 7.226436 0.757884 1.087296 60.409725 24.941791 -11.876617 1.410294 32.118682 -0.033382 -9.929077 5.281271 -0.488199 0.128194 -0.270133 -0.000000 0.000000 0.000000 0.000000 0.000000 0.000000 0.000000 
11.400324 16.267702 -1.450133 -174.390974 71.286761 -158.992808 2.524412 -0.838235 -5.669991 -0.213704 -1.199337 -3.774701 -5.612670 -1.233306 0.892082 6.807424 -3.627104 -7.545428 -2.115857 -0.159175 0.039182 0.000000 0.000000 0.000000 4.839258 8.259335 3.397431 -41.586608 -1.083613 7.755271 -3.381769 -36.421643 -0.015771 4.121092 3.065147 0.114811 -0.234406 0.073182 0.000000 0.000000 0.000000 0.000000 0.000000 0.000000 0.000000 6.121933 0.875634 0.974061 58.686209 26.004881 -11.308715 1.139179 34.860304 -0.038940 -10.314825 5.443849 -0.523986 0.126609 -0.292723 -0.000000 0.000000 0.000000 0.000000 0.000000 0.000000 0.000000 
11.568794 16.431437 -1.557470 -175.299079 71.202089 -160.090018 2.075721 -0.643216 -5.526387 -0.269401 -0.955392 -3.776299 -5.369499 -0.996311 0.792063 6.441660 -3.626532 -7.440763 -1.962225 -0.149895 0.073042 0.000000 0.000000 0.000000 4.531794 8.210300 3.364235 -43.502129 0.180499 9.045767 -3.792590 -31.223548 -0.015541 3.220907 3.610982 0.108323 -0.233160 0.044545 0.000000 0.000000 0.000000 0.000000 0.000000 0.000000 0.000000 5.018060 0.926140 0.847182 56.845526 26.865498 -10.883946 0.863751 37.763600 -0.045722 -10.820928 5.573878 -0.564276 0.125799 -0.316778 -0.000000 0.000000 0.000000 0.000000 0.000000 0.000000 0.000000 
11.741023 16.604478 -1.673314 -176.167222 71.162455 -161.168366 1.646281 -0.441195 -5.385281 -0.317387 -0.707017 -3.780870 -5.118290 -0.755388 0.684761 6.077920 -3.685351 -7.354303 -1.815712 -0.141066 0.102871 0.000000 0.000000 0.000000 4.204771 8.286396 3.294395 -45.510316 1.521425 9.264853 -4.139816 -26.044959 -0.016448 2.793218 4.068505 0.107434 -0.232547 0.024973 -0.000000 0.000000 0.000000 0.000000 0.000000 0.000000 0.000000 3.928965 0.918809 0.699414 54.900612 27.521494 -10.605626 0.596257 40.818026 -0.053489 -11.389992 5.712938 -0.610468 0.125449 -0.342220 -0.000000 0.000000 0.000000 0.000000 0.000000 0.000000 0.000000 
11.917147 16.784283 -1.796981 -176.996818 71.161586 -162.219356 1.232321 -0.232094 -5.262473 -0.359679 -0.454581 -3.788361 -4.866328 -0.510786 0.582188 5.730585 -3.801680 -7.288666 -1.676494 -0.132603 0.127778 0.000000 0.000000 0.000000 3.853614 8.520007 3.202294 -47.522612 2.841104 8.212671 -4.414339 -20.823172 -0.017411 2.954609 4.335707 0.120656 -0.232235 0.014820 -0.000000 0.000000 0.000000 0.000000 0.000000 0.000000 0.000000 2.876512 0.854763 0.525482 52.853520 27.986732 -10.458585 0.348231 44.009787 -0.061984 -11.979411 5.904779 -0.665258 0.125250 -0.368901 0.000000 0.000000 0.000000 0.000000 0.000000 0.000000 0.000000 
12.097182 16.968017 -1.927604 -177.793415 71.193007 -163.235529 0.830588 -0.016389 -5.174256 -0.398580 -0.198977 -3.799327 -4.621887 -0.263401 0.494549 5.410250 -3.969420 -7.246015 -1.544311 -0.124400 0.146990 0.000000 0.000000 0.000000 3.459980 8.939070 3.099820 -49.402544 4.053969 5.778214 -4.603495 -15.557955 -0.017522 3.791710 4.262847 0.149596 -0.231533 0.013644 -0.000000 0.000000 0.000000 0.000000 0.000000 0.000000 0.000000 1.875992 0.739217 0.322706 50.706740 28.275770 -10.434567 0.129186 47.326559 -0.070958 -12.556101 6.189339 -0.732051 0.124859 -0.396690 -0.000000 0.000000 0.000000 0.000000 0.000000 0.000000 0.000000 
12.280998 17.152736 -2.064167 -178.570997 71.248857 -164.215437 0.439987 0.203279 -5.133984 -0.436133 0.056711 -3.814861 -4.393619 -0.016419 0.428113 5.122261 -4.181654 -7.228240 -1.418505 -0.116339 0.159852 0.000000 0.000000 0.000000 2.989731 9.556962 2.995714 -50.970153 5.144253 2.082462 -4.690652 -10.388773 -0.016333 5.309356 3.711217 0.178761 -0.229469 0.019502 -0.000000 0.000000 0.000000 0.000000 0.000000 0.000000 0.000000 0.935693 0.580477 0.091836 48.465136 28.409011 -10.530412 -0.053438 50.753756 -0.080202 -13.100150 6.595851 -0.814343 0.124054 -0.425457 -0.000000 0.000000 0.000000 0.000000 0.000000 0.000000 0.000000 
